<svg width="1016" height="391" viewBox="0 0 1016 391" fill="none" xmlns="http://www.w3.org/2000/svg">
<path d="M75.2083 0V385.345H0V0H75.2083Z" fill="url(#paint0_linear)"/>
<path d="M224.484 390.769C195.81 390.769 172.297 384.03 153.946 370.553C135.594 357.075 126.419 338.009 126.419 313.355C126.419 294.782 131.498 279.661 141.657 267.991C151.816 256.322 165.252 247.446 181.965 241.365C198.842 235.119 217.111 231.01 236.773 229.038C265.284 226.408 285.028 223.942 296.006 221.641C306.984 219.176 312.473 215.067 312.473 209.314V208.821C312.473 199.124 307.803 191.481 298.464 185.893C289.288 180.304 276.426 177.51 259.877 177.51C223.829 177.51 205.805 190.331 205.805 215.971H130.843C130.843 195.097 136.496 177.428 147.801 162.964C159.271 148.336 174.755 137.324 194.254 129.928C213.752 122.367 235.79 118.587 260.368 118.587C283.308 118.587 304.526 122.121 324.025 129.188C343.523 136.091 359.171 146.61 370.969 160.745C382.93 174.716 388.911 192.385 388.911 213.752V326.915C388.911 333.654 389.074 340.146 389.402 346.392C389.894 352.637 390.877 358.226 392.351 363.157C393.99 368.909 396.038 373.676 398.496 377.456C400.954 381.236 403.002 383.866 404.64 385.345H329.678C328.531 384.03 326.728 381.647 324.271 378.196C321.977 374.58 320.01 370.388 318.372 365.622C317.389 362.828 316.57 360.116 315.914 357.486C306.083 368.005 293.139 376.223 277.081 382.14C261.024 387.893 243.491 390.769 224.484 390.769ZM244.884 333.571C256.681 333.571 267.823 331.435 278.31 327.161C288.797 322.724 297.317 315.82 303.871 306.452C310.425 297.083 313.702 284.838 313.702 269.717V267.498C304.363 269.964 294.45 272.018 283.963 273.662C273.476 275.141 263.072 276.456 252.749 277.606C236.036 279.25 223.501 282.126 215.145 286.235C206.952 290.18 202.856 296.919 202.856 306.452C202.856 324.532 216.865 333.571 244.884 333.571Z" fill="url(#paint1_linear)"/>
<path d="M537.326 390.276C518.811 390.276 503.573 387.318 491.612 381.401C479.65 375.319 470.229 367.183 463.347 356.993C456.465 346.803 451.631 335.462 448.846 322.97C446.061 310.479 444.668 297.823 444.668 285.003V123.518H520.859V264.786C520.859 275.798 522.088 285.907 524.546 295.111C527.004 304.315 531.51 311.711 538.064 317.3C544.618 322.888 554.121 325.682 566.574 325.682C578.371 325.682 588.448 322.231 596.805 315.327C605.325 308.424 611.797 299.713 616.221 289.194C620.645 278.51 622.857 267.498 622.857 256.157V123.518H699.049V385.345H622.857V347.378C613.682 360.527 601.802 370.964 587.22 378.689C572.801 386.414 556.169 390.276 537.326 390.276Z" fill="url(#paint2_linear)"/>
<path d="M756.212 385.345V123.518H832.403V163.704C842.398 149.569 855.179 138.557 870.745 130.667C886.311 122.614 903.351 118.587 921.867 118.587C953.982 118.587 977.658 128.038 992.897 146.939C1008.3 165.841 1016 190.659 1016 221.395V385.345H940.054V243.337C940.054 232.489 938.662 222.628 935.876 213.752C933.091 204.712 928.011 197.48 920.638 192.056C913.428 186.632 903.106 183.92 889.67 183.92C871.974 183.92 857.964 189.92 847.641 201.918C837.483 213.752 832.403 229.202 832.403 248.268V385.345H756.212Z" fill="url(#paint3_linear)"/>
<defs>
<linearGradient id="paint0_linear" x1="-67.5" y1="255.5" x2="1137.33" y2="241.049" gradientUnits="userSpaceOnUse">
<stop stop-color="#B466FE"/>
<stop offset="0.0001" stop-color="#6E48D1"/>
<stop offset="0.489583" stop-color="#D440A7"/>
<stop offset="1" stop-color="#F8504E"/>
</linearGradient>
<linearGradient id="paint1_linear" x1="-67.5" y1="255.5" x2="1137.33" y2="241.049" gradientUnits="userSpaceOnUse">
<stop stop-color="#B466FE"/>
<stop offset="0.0001" stop-color="#6E48D1"/>
<stop offset="0.489583" stop-color="#D440A7"/>
<stop offset="1" stop-color="#F8504E"/>
</linearGradient>
<linearGradient id="paint2_linear" x1="-67.5" y1="255.5" x2="1137.33" y2="241.049" gradientUnits="userSpaceOnUse">
<stop stop-color="#B466FE"/>
<stop offset="0.0001" stop-color="#6E48D1"/>
<stop offset="0.489583" stop-color="#D440A7"/>
<stop offset="1" stop-color="#F8504E"/>
</linearGradient>
<linearGradient id="paint3_linear" x1="-67.5" y1="255.5" x2="1137.33" y2="241.049" gradientUnits="userSpaceOnUse">
<stop stop-color="#B466FE"/>
<stop offset="0.0001" stop-color="#6E48D1"/>
<stop offset="0.489583" stop-color="#D440A7"/>
<stop offset="1" stop-color="#F8504E"/>
</linearGradient>
</defs>
</svg>
