<svg width="512" height="512" viewBox="0 0 512 512" fill="none" xmlns="http://www.w3.org/2000/svg">
<path d="M490.4 16.3996C452 28.3996 313 144.2 168.8 284.1L144.5 307.8L135.5 309.5C110.5 314.1 91.4 323.3 78.5 337.1C64.7 351.8 57.4 368.3 50.5 400.7C43.4 433.8 40.1 443.5 33.4 451C28.5 456.4 22.2 459.5 12.4 461.4C3.8 463 0 465.8 0 470.6C0 477.7 3.8 480.2 24.1 486.4C65.3 498.9 107.1 499.9 139 489.4C176.4 476.9 203.1 448.5 217 406.1C219.1 399.7 221.1 392.9 221.5 390.9C222.1 387.9 225.6 383.7 240.3 368.3C285.5 321.3 332.1 270 374.6 220.5C462.9 117.7 509.8 52.8996 511.7 31.4996C512.1 26.2996 511.9 24.9996 509.8 21.9996C505.5 15.5996 498.9 13.6996 490.4 16.3996ZM486.5 44.6996C464.2 85.3996 379.2 190.1 285.1 292.9C274.3 304.6 263.2 316.7 260.5 319.7L255.5 325.3L230.6 299.9L205.7 274.5L213.7 267C313.2 173.8 382.2 113.7 439 70.7996C462.7 52.8996 488.4 36.0996 489.8 37.4996C490.1 37.6996 488.6 40.9996 486.5 44.6996ZM217.2 313C230.6 326.8 241.6 338.4 241.7 338.8C241.8 339.2 235.7 346 228 354L214.1 368.5L188.3 342.8L162.5 317L177 302.5C185 294.5 191.8 288 192.2 288C192.5 288 203.8 299.3 217.2 313ZM174.2 355.7C190.3 371.8 203 385.3 203 386.3C203 390.2 195.4 411 190.4 421C174 453.3 147.3 471.5 109 476.7C91.5 479 62.3 476.9 43.9 472L40.2 471L45.9 465.2C56.3 454.6 61.3 441.4 69 404.5C75.1 375.4 81 362 93 350C101.7 341.3 108.8 336.9 120.2 332.9C127.8 330.4 140.3 327.3 144 327.1C144.8 327 158.4 339.9 174.2 355.7Z" fill="#059DFF"/>
</svg>
