<svg width="512" height="512" viewBox="0 0 512 512" fill="none" xmlns="http://www.w3.org/2000/svg">
<path d="M476.001 1.99936C408.801 8.99936 346.901 28.7994 306.001 56.2994C291.501 65.9994 285.201 71.5994 252.301 104.299L219.201 137.199L172.301 142.499C146.601 145.299 124.601 148.199 123.501 148.799C122.401 149.399 101.801 169.599 77.7006 193.699C33.4006 238.099 33.3006 238.199 34.0006 244.499C34.3006 247.499 37.9006 250.899 41.9006 251.899C43.9006 252.399 58.9006 254.699 75.2006 256.999L105.001 261.199L113.201 269.699C117.801 274.299 121.601 278.499 121.801 278.899C121.901 279.299 112.201 285.599 100.201 292.799C78.3006 305.899 76.0006 307.799 76.0006 313.099C76.0006 314.199 76.5006 316.099 77.1006 317.299C78.7006 320.399 190.901 432.799 194.201 434.599C195.701 435.399 197.801 435.999 198.901 435.999C204.201 435.999 206.101 433.699 219.201 411.799C226.401 399.799 232.701 390.099 233.101 390.199C233.501 390.399 237.701 394.199 242.301 398.799L250.801 406.999L255.001 436.799C257.301 453.099 259.601 468.099 260.101 470.099C261.101 474.099 264.501 477.699 267.501 477.999C273.801 478.699 273.901 478.599 318.301 434.299C342.401 410.199 362.601 389.599 363.201 388.499C363.801 387.399 366.701 365.399 369.501 339.699L374.801 292.799L407.701 259.699C440.401 226.799 446.001 220.499 455.701 205.999C483.601 164.699 503.201 102.599 510.001 34.5994C512.701 7.49936 512.701 7.49936 508.601 3.39936C505.501 0.299358 504.701 -0.000641891 499.401 0.0993581C496.101 0.199358 485.601 0.999358 476.001 1.99936ZM490.601 29.1994C488.901 48.7994 484.701 73.7994 479.301 96.3994L475.801 111.299L438.401 73.8994C417.801 53.2994 401.001 36.3994 401.001 36.2994C401.001 36.1994 407.601 34.5994 415.801 32.5994C431.701 28.7994 454.101 24.7994 468.501 23.0994C473.501 22.4994 478.601 21.7994 480.001 21.5994C481.401 21.3994 484.501 21.1994 486.901 21.0994L491.301 20.9994L490.601 29.1994ZM424.301 87.7994L469.101 132.599L465.501 142.599C455.701 169.199 438.801 198.099 422.201 216.499C417.301 221.999 384.101 255.499 348.601 290.999L284.001 355.499L243.701 315.199C204.201 275.799 203.301 274.999 199.401 274.999C195.201 274.999 192.001 276.999 190.001 280.899C187.101 286.499 188.001 287.499 229.501 328.999C251.201 350.699 269.001 368.899 269.001 369.499C269.001 370.799 256.801 382.999 255.501 382.999C254.201 382.999 129.001 257.799 129.001 256.499C129.001 254.399 298.401 86.4994 306.601 80.2994C324.201 67.1994 346.101 55.3994 368.001 47.0994C373.801 44.8994 378.701 43.0994 379.001 42.9994C379.301 42.9994 399.701 63.1994 424.301 87.7994ZM155.401 201.099L114.201 242.199L91.4006 239.099C78.8006 237.299 67.7006 235.599 66.7006 235.199C65.3006 234.599 71.8006 227.699 98.7006 200.799L132.501 166.999L162.001 163.599C178.201 161.799 192.601 160.199 194.001 160.099C196.001 159.999 187.901 168.599 155.401 201.099ZM177.901 334.399L218.201 374.799L208.001 391.899C202.301 401.299 197.501 408.999 197.101 408.999C195.801 408.999 102.601 315.099 103.301 314.399C104.101 313.499 136.301 294.099 137.001 293.999C137.301 293.999 155.701 312.199 177.901 334.399ZM348.501 348.099L345.001 379.499L311.201 413.299C284.301 440.199 277.401 446.699 276.801 445.299C276.401 444.299 274.701 433.199 272.901 420.599L269.801 397.799L310.601 356.899C333.001 334.499 351.501 316.199 351.701 316.399C351.901 316.499 350.401 330.799 348.501 348.099Z" fill="#6549D5"/>
<path d="M312.5 128.1C309.8 128.7 303.7 130.9 299 133.2C282.4 141.2 269.9 157.4 266.5 175.5C264.6 185.1 264.6 189.6 266.5 198.5C271.4 221.9 290.1 240.6 313.5 245.5C322.4 247.4 326.9 247.4 336.7 245.5C354.6 242.1 370.9 229.6 378.8 213C394.5 180.4 378.8 142.2 344.9 130.3C336.5 127.4 321.3 126.3 312.5 128.1ZM336.4 148.5C349.8 152.6 360.2 163.4 364 177.3C367.3 189.6 362.8 205.3 353 215.1C334.3 233.8 301.9 228.6 290 205C278.5 182.3 289.8 156.2 314.5 148.4C320 146.7 330.5 146.7 336.4 148.5Z" fill="#6549D5"/>
<path d="M168.3 246.8C164.9 247.3 161 252.6 161 256.7C161 259.2 161.8 261 163.9 263.1C171.2 270.3 183.2 263.1 180 253.4C179.4 251.6 178.3 249.7 177.5 249C175.7 247.5 171 246.3 168.3 246.8Z" fill="#6549D5"/>
<path d="M48.8006 392.7C30.8006 410.7 15.6006 426.6 14.9006 428.1C14.1006 430.2 14.1006 431.8 15.0006 434.4C16.4006 438.7 19.8006 441 24.7006 441C28.3006 441 29.8006 439.6 61.2006 408.3C79.2006 390.3 94.4006 374.4 95.1006 372.9C95.9006 370.8 95.9006 369.2 95.0006 366.6C93.5006 362 90.6006 360 85.6006 360C81.7006 360 80.9006 360.7 48.8006 392.7Z" fill="#6549D5"/>
<path d="M109 389.6C105.4 392 6.30041 490.8 2.90041 495.4C-0.999594 500.7 -0.899594 504.3 3.40041 508.6C7.70041 512.9 11.3004 513 16.6004 509.1C21.2004 505.7 120 406.6 122.4 403C125 399.1 124.5 394.6 120.9 391.1C117.4 387.5 112.9 387 109 389.6Z" fill="#6549D5"/>
<path d="M137.5 417.899C135.9 418.899 120.2 434.099 102.8 451.699C72.5 482.099 71 483.799 71 487.399C71 492.199 73.3 495.599 77.6 496.999C80.2 497.899 81.8 497.899 83.9 497.099C85.4 496.399 101.3 481.199 119.3 463.199C150.6 431.799 152 430.299 152 426.699C152 421.899 149.7 418.499 145.8 417.099C141.7 415.599 141 415.699 137.5 417.899Z" fill="#6549D5"/>
</svg>
