<svg width="512" height="512" viewBox="0 0 512 512" fill="none" xmlns="http://www.w3.org/2000/svg">
<path d="M147 92.0995C128.6 94.1995 111.7 99.0995 94.0004 107.6C34.3004 136.2 -2.79957 197.8 0.30043 263C2.80043 313.5 26.3004 357.6 67.0004 388.2C78.4004 396.7 100.2 408.2 113 412.4C184.6 435.9 262.5 409.4 304.1 347.2C359.8 264 328.7 151.1 238 107.6C209.3 93.7995 178.3 88.5995 147 92.0995Z" fill="#FB5343"/>
<path d="M273.5 92.6998C274.1 93.1998 277.4 95.6998 281 98.1998C298.5 110.5 315.7 128.4 329.1 148.4C372.9 213.5 372.9 298.5 329.1 363.6C315.7 383.6 298.5 401.5 281 413.8C271.8 420.2 271.8 420.3 278 419.5C340 411.7 393.7 367.5 413.4 308C442 221.4 395.4 128.3 308.9 99.5998C295 94.9998 270.9 90.2998 273.5 92.6998Z" fill="#FB5343"/>
<path d="M363.5 92.6998C364.1 93.1998 367.4 95.6998 371 98.1998C388.5 110.5 405.7 128.4 419.1 148.4C462.9 213.5 462.9 298.5 419.1 363.6C405.7 383.6 388.5 401.5 371 413.8C361.8 420.2 361.8 420.3 368 419.5C430 411.7 483.7 367.5 503.4 308C532 221.4 485.4 128.3 398.9 99.5998C385 94.9998 360.9 90.2998 363.5 92.6998Z" fill="#FB5343"/>
</svg>
